<svg id="Layer_1" data-name="Layer 1" xmlns="http://www.w3.org/2000/svg" viewBox="0 0 680.66 481.28"><defs><style>.cls-1,.cls-2,.cls-6{fill:none;}.cls-1{stroke:#0065a3;stroke-width:19px;}.cls-1,.cls-2,.cls-5,.cls-6{stroke-miterlimit:10;}.cls-2,.cls-5,.cls-6{stroke:#231f20;}.cls-2,.cls-5{stroke-width:0.8px;}.cls-3,.cls-4{font-size:12px;font-family:Helvetica-Light, Helvetica;}.cls-3,.cls-7{fill:#231f20;}.cls-4,.cls-5{fill:#fff;}.cls-6{stroke-width:0.5px;}</style></defs><title>Artboard 1</title><rect class="cls-1" x="127.48" y="95.42" width="425.7" height="290.44"/><rect class="cls-2" x="47.77" y="41.04" width="585.11" height="399.21"/><text class="cls-3" transform="translate(47.77 35.16)">MARGIN EDGE</text><text class="cls-3" transform="translate(118.02 81.14)">BORDER EDGE</text><text class="cls-4" transform="translate(137.19 99.14)">PADDING EDGE</text><rect class="cls-5" x="197.22" y="143" width="286.22" height="195.28"/><text class="cls-3" transform="translate(197.22 139.12)">CONTENT EDGE</text><text class="cls-3" transform="translate(205 269.46)">CONTENT WIDTH</text><line class="cls-6" x1="394.72" y1="146.59" x2="394.72" y2="334.69"/><polygon class="cls-7" points="392.23 147.32 394.72 143 397.21 147.32 392.23 147.32"/><polygon class="cls-7" points="392.23 333.96 394.72 338.28 397.21 333.96 392.23 333.96"/><line class="cls-6" x1="200.81" y1="273.33" x2="479.85" y2="273.33"/><polygon class="cls-7" points="201.54 275.83 197.22 273.33 201.54 270.84 201.54 275.83"/><polygon class="cls-7" points="479.12 275.83 483.44 273.33 479.12 270.84 479.12 275.83"/><text class="cls-3" transform="translate(399.72 151.05) rotate(90)">C<tspan x="8.67" y="0">O</tspan><tspan x="18.02" y="0">N</tspan><tspan x="26.67" y="0">T</tspan><tspan x="33.36" y="0">E</tspan><tspan x="40.69" y="0">N</tspan><tspan x="49.36" y="0">T</tspan><tspan x="56.02" y="0"> </tspan><tspan x="59.36" y="0">H</tspan><tspan x="68.03" y="0">E</tspan><tspan x="75.37" y="0">I</tspan><tspan x="78.7" y="0">G</tspan><tspan x="88.05" y="0">H</tspan><tspan x="96.71" y="0">T</tspan></text></svg>